<?xml version="1.0" encoding="UTF-8" ?>
<!DOCTYPE svg PUBLIC "-//W3C//DTD SVG 1.1//EN" "http://www.w3.org/Graphics/SVG/1.1/DTD/svg11.dtd">
<svg width="540pt" height="360pt" viewBox="0 0 540 360" version="1.1" xmlns="http://www.w3.org/2000/svg">
<path fill="#eee6de" opacity="1.00" d=" M 329.18 190.16 C 331.37 189.59 333.62 189.26 335.84 188.83 C 336.70 188.79 338.42 188.71 339.28 188.67 C 344.24 190.66 348.22 194.29 352.15 197.80 C 359.43 204.25 367.34 210.88 377.14 212.84 C 378.14 213.16 379.14 213.48 380.15 213.79 C 381.40 214.28 382.66 214.74 383.92 215.24 C 384.99 215.70 386.07 216.17 387.17 216.63 C 390.42 218.39 393.39 220.68 395.46 223.79 C 396.09 225.47 396.82 227.11 397.63 228.73 C 400.79 228.23 403.93 227.55 407.09 227.05 C 413.37 225.92 419.61 224.50 425.94 223.63 C 426.47 223.78 427.54 224.07 428.07 224.21 C 423.68 225.57 419.24 226.75 414.79 227.87 C 397.82 231.57 380.93 235.61 364.06 239.71 C 351.94 243.71 339.85 248.42 327.00 249.37 C 321.01 249.68 315.05 250.32 309.06 250.53 C 306.20 247.75 304.04 244.37 301.55 241.27 C 301.61 243.58 301.91 245.87 302.31 248.15 C 301.87 248.48 301.00 249.14 300.57 249.47 C 300.40 251.82 300.16 254.18 299.41 256.43 C 298.67 257.25 297.93 258.09 297.20 258.92 C 296.63 259.23 295.50 259.83 294.93 260.14 C 294.97 254.12 295.01 247.37 290.12 243.02 C 287.29 239.55 283.33 237.21 279.14 235.76 C 270.14 232.54 260.54 230.12 252.87 224.13 C 247.11 219.55 242.17 214.08 237.34 208.56 C 235.82 206.64 233.19 206.93 231.02 206.64 L 230.86 206.48 L 231.65 206.22 C 235.49 205.81 239.35 205.65 243.18 205.11 C 245.47 204.68 247.79 204.43 250.11 204.11 C 252.34 203.66 254.61 203.38 256.83 202.87 C 260.87 202.35 264.92 201.79 268.90 200.90 C 270.65 200.61 272.41 200.37 274.18 200.16 C 276.40 199.74 278.65 199.42 280.86 198.90 C 286.68 198.29 292.37 196.86 298.17 196.16 C 299.83 195.80 301.51 195.51 303.19 195.18 C 305.41 194.67 307.68 194.43 309.92 193.95 C 311.32 193.68 312.73 193.44 314.15 193.19 C 315.80 192.73 317.49 192.40 319.19 192.17 C 321.07 191.73 322.97 191.36 324.85 190.86 C 326.29 190.63 327.73 190.41 329.18 190.16 M 382.86 219.48 C 383.42 220.86 384.02 222.24 384.64 223.60 C 383.49 223.66 382.01 222.92 381.25 224.12 C 381.15 226.28 382.76 227.61 384.48 228.55 C 381.91 229.09 379.37 229.79 376.86 230.58 C 375.96 228.63 374.70 226.89 372.87 225.73 C 372.68 227.77 373.77 229.49 374.74 231.17 C 371.92 232.77 370.51 229.92 369.15 227.94 C 368.29 229.22 367.43 230.50 366.58 231.79 C 365.47 230.47 364.37 229.16 363.25 227.85 C 363.32 229.94 363.38 232.03 363.43 234.12 C 361.57 232.67 359.70 231.25 357.80 229.86 C 358.11 231.83 358.46 233.79 358.82 235.75 C 358.21 235.73 356.99 235.69 356.38 235.67 C 355.99 232.64 353.96 230.58 351.34 229.26 C 351.51 231.13 351.65 233.01 351.78 234.89 C 349.90 234.17 348.01 233.51 346.10 232.91 C 346.63 234.54 347.19 236.17 347.75 237.79 C 345.62 238.58 343.51 239.93 341.16 239.73 C 339.68 238.49 338.36 237.07 336.91 235.81 C 336.71 237.67 337.68 239.26 338.57 240.81 C 337.50 241.03 336.45 241.26 335.40 241.49 C 334.48 240.84 333.56 240.20 332.65 239.56 C 332.52 240.52 332.38 241.49 332.27 242.46 C 327.37 243.81 322.17 244.64 317.68 247.09 C 322.62 247.02 327.39 245.58 332.15 244.39 C 343.91 241.22 355.82 238.60 367.64 235.68 C 375.49 233.44 383.64 232.52 391.41 229.98 C 389.97 225.64 387.34 221.18 382.86 219.48 Z" />
<path fill="#784419" opacity="1.00" d=" M 230.07 205.74 C 230.27 205.92 230.67 206.30 230.86 206.48 L 231.02 206.64 C 230.47 207.14 229.39 208.13 228.85 208.63 C 246.37 226.82 265.19 243.80 285.48 258.86 C 284.84 258.79 283.55 258.63 282.91 258.56 L 282.53 258.52 C 276.65 254.11 271.03 249.36 265.53 244.50 C 260.97 240.00 255.37 236.70 250.90 232.11 C 245.42 227.30 240.88 221.53 235.40 216.73 C 232.19 214.32 229.23 211.49 227.24 207.96 C 227.95 207.41 229.36 206.29 230.07 205.74 Z" />
<path fill="#d8b884" opacity="1.00" d=" M 228.85 208.63 C 229.39 208.13 230.47 207.14 231.02 206.64 C 233.19 206.93 235.82 206.64 237.34 208.56 C 242.17 214.08 247.11 219.55 252.87 224.13 C 260.54 230.12 270.14 232.54 279.14 235.76 C 283.33 237.21 287.29 239.55 290.12 243.02 C 290.06 243.44 289.96 244.30 289.90 244.72 C 284.45 240.79 278.46 237.43 271.87 235.88 C 276.90 240.06 283.72 241.87 287.79 247.21 C 290.89 251.42 294.58 256.04 293.67 261.65 C 292.79 260.71 291.88 259.80 290.96 258.90 C 289.92 259.71 288.88 260.53 287.84 261.34 C 287.18 260.40 286.41 259.53 285.48 258.86 C 265.19 243.80 246.37 226.82 228.85 208.63 Z" />
<path fill="#d0bca5" opacity="1.00" d=" M 461.84 215.52 C 466.08 214.02 469.00 217.80 472.01 220.05 C 472.17 220.55 472.49 221.57 472.65 222.07 C 467.13 223.72 461.62 225.64 455.90 226.42 L 454.56 226.02 C 454.52 226.19 454.45 226.54 454.42 226.71 C 442.52 229.62 430.63 232.59 418.75 235.56 C 416.55 234.47 414.36 233.38 412.16 232.31 C 414.25 231.60 416.35 230.87 418.45 230.15 C 417.22 229.39 416.00 228.63 414.79 227.87 C 419.24 226.75 423.68 225.57 428.07 224.21 C 427.54 224.07 426.47 223.78 425.94 223.63 C 434.55 221.52 443.42 220.67 452.15 219.17 C 454.17 218.50 456.20 217.88 458.26 217.32 C 459.45 216.73 460.65 216.15 461.84 215.52 Z" />
<path fill="#dcd3c6" opacity="1.00" d=" M 382.86 219.48 C 387.34 221.18 389.97 225.64 391.41 229.98 C 383.64 232.52 375.49 233.44 367.64 235.68 C 355.82 238.60 343.91 241.22 332.15 244.39 C 327.39 245.58 322.62 247.02 317.68 247.09 C 322.17 244.64 327.37 243.81 332.27 242.46 C 332.38 241.49 332.52 240.52 332.65 239.56 C 333.56 240.20 334.48 240.84 335.40 241.49 C 336.45 241.26 337.50 241.03 338.57 240.81 C 337.68 239.26 336.71 237.67 336.91 235.81 C 338.36 237.07 339.68 238.49 341.16 239.73 C 343.51 239.93 345.62 238.58 347.75 237.79 C 347.19 236.17 346.63 234.54 346.10 232.91 C 348.01 233.51 349.90 234.17 351.78 234.89 C 351.65 233.01 351.51 231.13 351.34 229.26 C 353.96 230.58 355.99 232.64 356.38 235.67 C 356.99 235.69 358.21 235.73 358.82 235.75 C 358.46 233.79 358.11 231.83 357.80 229.86 C 359.70 231.25 361.57 232.67 363.43 234.12 C 363.38 232.03 363.32 229.94 363.25 227.85 C 364.37 229.16 365.47 230.47 366.58 231.79 C 367.43 230.50 368.29 229.22 369.15 227.94 C 370.51 229.92 371.92 232.77 374.74 231.17 C 373.77 229.49 372.68 227.77 372.87 225.73 C 374.70 226.89 375.96 228.63 376.86 230.58 C 379.37 229.79 381.91 229.09 384.48 228.55 C 382.76 227.61 381.15 226.28 381.25 224.12 C 382.01 222.92 383.49 223.66 384.64 223.60 C 384.02 222.24 383.42 220.86 382.86 219.48 Z" />
<path fill="#4d3d36" opacity="0.60" d=" M 472.01 220.05 C 473.43 220.60 473.88 221.65 473.37 223.19 C 468.35 225.10 462.99 225.96 457.98 227.88 C 456.11 230.24 458.88 234.65 455.71 236.05 C 456.02 233.99 456.31 231.93 456.58 229.86 C 456.66 229.24 456.81 228.00 456.89 227.38 C 456.06 227.16 455.23 226.93 454.42 226.71 C 454.45 226.54 454.52 226.19 454.56 226.02 L 455.90 226.42 C 461.62 225.64 467.13 223.72 472.65 222.07 C 472.49 221.57 472.17 220.55 472.01 220.05 Z" />
<path fill="#6e5148" opacity="1.00" d=" M 418.75 235.56 C 430.63 232.59 442.52 229.62 454.42 226.71 C 455.23 226.93 456.06 227.16 456.89 227.38 C 456.81 228.00 456.66 229.24 456.58 229.86 C 451.72 230.47 446.79 230.25 441.95 230.96 C 431.96 232.81 422.39 236.49 412.36 238.18 L 413.29 236.87 C 415.10 236.41 416.92 235.99 418.75 235.56 Z" />
<path fill="#dbc9ad" opacity="1.00" d=" M 364.06 239.71 C 380.93 235.61 397.82 231.57 414.79 227.87 C 416.00 228.63 417.22 229.39 418.45 230.15 C 416.35 230.87 414.25 231.60 412.16 232.31 C 414.36 233.38 416.55 234.47 418.75 235.56 C 416.92 235.99 415.10 236.41 413.29 236.87 C 406.85 238.03 400.59 239.96 394.23 241.44 C 387.71 243.05 381.10 244.27 374.64 246.11 C 370.31 245.73 367.65 241.72 364.06 239.71 Z" />
<path fill="#553022" opacity="1.00" d=" M 441.95 230.96 C 446.79 230.25 451.72 230.47 456.58 229.86 C 456.31 231.93 456.02 233.99 455.71 236.05 L 455.66 236.37 C 454.98 236.45 453.61 236.60 452.93 236.67 L 452.17 237.22 C 445.79 239.06 439.26 240.31 432.94 242.39 C 426.98 243.30 421.81 246.58 415.97 247.92 C 412.29 248.93 408.75 250.39 405.03 251.23 C 404.74 251.27 404.17 251.36 403.88 251.41 C 404.60 248.91 403.16 246.69 401.95 244.64 C 397.73 244.16 393.60 245.19 390.18 247.72 C 390.40 246.44 390.62 245.16 390.84 243.88 C 398.07 242.18 405.11 239.79 412.36 238.18 C 422.39 236.49 431.96 232.81 441.95 230.96 Z" />
<path fill="#dfc5a1" opacity="1.00" d=" M 271.87 235.88 C 278.46 237.43 284.45 240.79 289.90 244.72 C 289.96 244.30 290.06 243.44 290.12 243.02 C 295.01 247.37 294.97 254.12 294.93 260.14 C 295.50 259.83 296.63 259.23 297.20 258.92 C 296.95 259.53 296.43 260.74 296.18 261.34 C 295.62 261.62 294.49 262.19 293.93 262.47 L 293.67 261.65 C 294.58 256.04 290.89 251.42 287.79 247.21 C 283.72 241.87 276.90 240.06 271.87 235.88 Z" />
<path fill="#9b7c65" opacity="1.00" d=" M 394.23 241.44 C 400.59 239.96 406.85 238.03 413.29 236.87 L 412.36 238.18 C 405.11 239.79 398.07 242.18 390.84 243.88 C 385.82 245.16 380.46 245.68 375.94 248.39 C 374.42 248.02 372.93 247.59 371.44 247.16 C 372.49 246.78 373.56 246.43 374.64 246.11 C 381.10 244.27 387.71 243.05 394.23 241.44 Z" />
<path fill="#cba263" opacity="1.00" d=" M 327.00 249.37 C 339.85 248.42 351.94 243.71 364.06 239.71 C 367.65 241.72 370.31 245.73 374.64 246.11 C 373.56 246.43 372.49 246.78 371.44 247.16 C 354.80 253.43 337.67 258.46 320.31 262.27 C 313.51 264.29 306.84 266.90 299.78 267.94 C 297.92 266.33 296.02 264.76 294.16 263.15 L 293.93 262.47 C 294.49 262.19 295.62 261.62 296.18 261.34 C 296.43 260.74 296.95 259.53 297.20 258.92 C 297.93 258.09 298.67 257.25 299.41 256.43 C 302.18 253.85 305.28 251.36 309.06 250.53 C 315.05 250.32 321.01 249.68 327.00 249.37 M 309.36 254.49 C 307.15 256.09 304.99 257.76 302.88 259.48 C 307.87 257.66 313.09 256.52 318.05 254.59 C 315.27 253.76 312.00 252.66 309.36 254.49 Z" />
<path fill="#e0d7cd" opacity="1.00" d=" M 302.31 248.15 C 301.91 245.87 301.61 243.58 301.55 241.27 C 304.04 244.37 306.20 247.75 309.06 250.53 C 305.28 251.36 302.18 253.85 299.41 256.43 C 300.16 254.18 300.40 251.82 300.57 249.47 C 301.00 249.14 301.87 248.48 302.31 248.15 Z" />
<path fill="#724a31" opacity="1.00" d=" M 375.94 248.39 C 380.46 245.68 385.82 245.16 390.84 243.88 C 390.62 245.16 390.40 246.44 390.18 247.72 C 393.60 245.19 397.73 244.16 401.95 244.64 C 403.16 246.69 404.60 248.91 403.88 251.41 C 404.17 251.36 404.74 251.27 405.03 251.23 C 402.28 252.35 399.41 253.29 396.42 253.35 C 394.47 253.46 392.52 253.69 390.62 254.12 C 390.44 251.92 389.81 249.42 387.66 248.34 C 383.31 248.23 379.35 250.45 375.19 251.40 C 372.66 252.28 369.30 252.40 368.07 255.21 C 363.93 254.18 359.93 256.15 355.95 256.97 C 348.10 258.75 340.32 260.77 332.59 263.01 C 332.64 262.57 332.73 261.69 332.78 261.25 C 341.39 259.27 349.86 256.74 358.32 254.19 C 364.20 252.31 370.65 251.82 375.94 248.39 Z" />
<path fill="#784419" opacity="1.00" d=" M 320.31 262.27 C 337.67 258.46 354.80 253.43 371.44 247.16 C 372.93 247.59 374.42 248.02 375.94 248.39 C 370.65 251.82 364.20 252.31 358.32 254.19 C 349.86 256.74 341.39 259.27 332.78 261.25 C 332.73 261.69 332.64 262.57 332.59 263.01 C 329.96 263.69 327.48 264.85 325.25 266.40 C 323.86 265.83 322.43 265.36 321.02 264.87 C 319.86 265.12 318.70 265.37 317.54 265.60 C 316.65 265.78 314.87 266.14 313.98 266.31 C 311.28 267.05 308.80 268.37 306.38 269.73 L 305.27 270.37 C 303.28 270.53 301.30 270.73 299.32 270.81 C 295.45 270.77 291.66 269.19 289.88 265.58 C 293.02 266.82 296.27 268.78 299.78 267.94 C 306.84 266.90 313.51 264.29 320.31 262.27 Z" />
<path fill="#825d41" opacity="1.00" d=" M 375.19 251.40 C 379.35 250.45 383.31 248.23 387.66 248.34 C 389.81 249.42 390.44 251.92 390.62 254.12 C 385.37 255.57 380.12 257.11 375.22 259.50 C 366.23 261.39 357.16 263.80 348.93 268.00 C 343.54 269.09 338.00 269.62 332.82 271.65 C 331.74 270.84 330.67 270.04 329.60 269.24 C 328.22 268.18 326.76 267.24 325.25 266.40 C 327.48 264.85 329.96 263.69 332.59 263.01 C 340.32 260.77 348.10 258.75 355.95 256.97 C 359.93 256.15 363.93 254.18 368.07 255.21 C 369.30 252.40 372.66 252.28 375.19 251.40 M 364.26 256.29 C 362.81 256.32 362.92 258.73 364.32 258.75 C 365.78 258.75 365.67 256.28 364.26 256.29 M 361.29 257.11 C 360.04 257.88 360.06 258.58 361.36 259.21 C 362.61 258.43 362.59 257.73 361.29 257.11 M 356.22 258.20 C 356.18 258.90 356.11 260.31 356.08 261.01 C 357.72 260.93 359.25 260.50 359.94 258.82 C 358.77 258.00 357.52 257.79 356.22 258.20 M 349.74 261.88 C 351.24 261.78 352.75 261.69 354.25 261.60 C 354.24 260.90 354.22 259.51 354.21 258.81 C 352.54 259.58 349.19 259.17 349.74 261.88 M 347.00 261.16 C 346.52 262.83 347.07 263.42 348.65 262.93 C 349.12 261.26 348.57 260.67 347.00 261.16 Z" />
<path fill="#bf9453" opacity="1.00" d=" M 309.36 254.49 C 312.00 252.66 315.27 253.76 318.05 254.59 C 313.09 256.52 307.87 257.66 302.88 259.48 C 304.99 257.76 307.15 256.09 309.36 254.49 Z" />
<path fill="#391307" opacity="1.00" d=" M 390.62 254.12 C 392.52 253.69 394.47 253.46 396.42 253.35 C 396.51 253.77 396.71 254.61 396.80 255.02 C 400.45 258.79 404.92 261.71 408.44 265.61 C 408.39 266.26 408.30 267.58 408.26 268.24 C 405.92 267.26 403.86 265.77 402.39 263.69 C 401.51 264.93 400.63 266.16 399.76 267.40 C 398.85 266.85 397.96 266.27 397.10 265.67 C 397.38 264.58 397.77 263.52 398.15 262.47 C 396.39 261.50 394.62 260.54 392.85 259.60 C 389.85 260.99 386.46 261.72 383.92 263.96 C 379.10 267.82 373.27 270.01 367.85 272.83 C 363.18 275.50 357.64 276.09 353.15 279.13 C 350.94 280.71 348.15 280.48 345.59 280.50 C 345.57 282.25 345.54 284.01 345.50 285.76 C 345.11 285.48 344.34 284.91 343.96 284.62 C 339.01 279.64 333.61 275.06 329.60 269.24 C 330.67 270.04 331.74 270.84 332.82 271.65 C 338.00 269.62 343.54 269.09 348.93 268.00 C 357.16 263.80 366.23 261.39 375.22 259.50 C 380.12 257.11 385.37 255.57 390.62 254.12 Z" />
<path fill="#a48060" opacity="1.00" d=" M 364.26 256.29 C 365.67 256.28 365.78 258.75 364.32 258.75 C 362.92 258.73 362.81 256.32 364.26 256.29 Z" />
<path fill="#b59475" opacity="1.00" d=" M 361.29 257.11 C 362.59 257.73 362.61 258.43 361.36 259.21 C 360.06 258.58 360.04 257.88 361.29 257.11 Z" />
<path fill="#ad896b" opacity="1.00" d=" M 356.22 258.20 C 357.52 257.79 358.77 258.00 359.94 258.82 C 359.25 260.50 357.72 260.93 356.08 261.01 C 356.11 260.31 356.18 258.90 356.22 258.20 Z" />
<path fill="#48311c" opacity="0.46" d=" M 282.91 258.56 C 283.55 258.63 284.84 258.79 285.48 258.86 C 286.41 259.53 287.18 260.40 287.84 261.34 C 287.97 261.61 288.23 262.15 288.36 262.42 C 288.70 263.15 289.37 264.60 289.70 265.33 C 287.40 268.48 283.33 268.77 279.81 269.40 C 282.08 267.47 285.31 267.50 287.96 266.31 C 288.23 262.61 285.24 260.74 282.91 258.56 Z" />
<path fill="#966331" opacity="0.98" d=" M 287.84 261.34 C 288.88 260.53 289.92 259.71 290.96 258.90 C 291.88 259.80 292.79 260.71 293.67 261.65 L 293.93 262.47 L 294.16 263.15 C 292.23 262.84 290.29 262.63 288.36 262.42 C 288.23 262.15 287.97 261.61 287.84 261.34 Z" />
<path fill="#ae8969" opacity="1.00" d=" M 349.74 261.88 C 349.19 259.17 352.54 259.58 354.21 258.81 C 354.22 259.51 354.24 260.90 354.25 261.60 C 352.75 261.69 351.24 261.78 349.74 261.88 Z" />
<path fill="#2e0c06" opacity="1.00" d=" M 383.92 263.96 C 386.46 261.72 389.85 260.99 392.85 259.60 C 394.62 260.54 396.39 261.50 398.15 262.47 C 397.77 263.52 397.38 264.58 397.10 265.67 C 397.96 266.27 398.85 266.85 399.76 267.40 C 400.63 266.16 401.51 264.93 402.39 263.69 C 403.86 265.77 405.92 267.26 408.26 268.24 C 410.39 269.59 411.65 271.80 412.08 274.26 C 407.09 274.84 401.67 275.02 397.66 271.43 C 396.30 272.78 394.95 274.13 393.60 275.49 C 389.68 275.61 385.44 274.77 381.83 276.73 C 377.96 278.62 374.73 282.27 370.11 282.16 C 367.00 282.18 363.94 282.98 361.83 285.42 C 360.34 285.36 358.85 285.29 357.36 285.22 C 357.36 286.38 357.37 287.54 357.38 288.71 C 355.25 287.91 353.06 287.28 350.83 286.85 C 352.94 290.01 355.83 292.50 358.51 295.16 C 357.81 295.12 356.41 295.05 355.71 295.02 C 352.20 292.05 349.14 288.57 345.50 285.76 C 345.54 284.01 345.57 282.25 345.59 280.50 C 348.15 280.48 350.94 280.71 353.15 279.13 C 357.64 276.09 363.18 275.50 367.85 272.83 C 373.27 270.01 379.10 267.82 383.92 263.96 Z" />
<path fill="#b79476" opacity="1.00" d=" M 347.00 261.16 C 348.57 260.67 349.12 261.26 348.65 262.93 C 347.07 263.42 346.52 262.83 347.00 261.16 Z" />
<path fill="#5d2208" opacity="1.00" d=" M 288.36 262.42 C 290.29 262.63 292.23 262.84 294.16 263.15 C 296.02 264.76 297.92 266.33 299.78 267.94 C 296.27 268.78 293.02 266.82 289.88 265.58 C 289.83 265.52 289.74 265.39 289.70 265.33 C 289.37 264.60 288.70 263.15 288.36 262.42 Z" />
<path fill="#815839" opacity="1.00" d=" M 289.70 265.33 C 289.74 265.39 289.83 265.52 289.88 265.58 C 291.66 269.19 295.45 270.77 299.32 270.81 L 300.85 271.03 C 294.33 273.24 287.64 274.90 281.06 276.83 C 276.84 276.49 272.62 276.35 268.40 276.18 C 267.83 275.33 267.27 274.49 266.71 273.65 C 271.10 272.29 275.41 270.70 279.81 269.40 C 283.33 268.77 287.40 268.48 289.70 265.33 Z" />
<path fill="#7c563d" opacity="1.00" d=" M 317.54 265.60 C 318.70 265.37 319.86 265.12 321.02 264.87 C 322.43 265.36 323.86 265.83 325.25 266.40 C 326.76 267.24 328.22 268.18 329.60 269.24 C 333.61 275.06 339.01 279.64 343.96 284.62 C 344.92 286.04 345.84 287.50 346.75 288.96 C 343.36 288.30 340.28 286.71 337.03 285.65 C 332.14 282.16 328.42 277.16 323.48 273.66 C 322.83 273.55 321.54 273.34 320.89 273.24 C 318.67 272.34 316.37 271.66 314.16 270.78 C 311.71 269.63 309.03 269.42 306.38 269.73 C 308.80 268.37 311.28 267.05 313.98 266.31 C 315.76 268.20 318.28 268.82 320.74 269.28 C 320.18 267.65 318.97 266.48 317.54 265.60 Z" />
<path fill="#b59470" opacity="1.00" d=" M 313.98 266.31 C 314.87 266.14 316.65 265.78 317.54 265.60 C 318.97 266.48 320.18 267.65 320.74 269.28 C 318.28 268.82 315.76 268.20 313.98 266.31 Z" />
<path fill="#2f1914" opacity="1.00" d=" M 408.44 265.61 C 410.79 267.53 413.07 269.53 415.42 271.47 C 415.45 271.63 415.52 271.93 415.56 272.09 C 416.10 274.80 417.10 277.38 418.02 279.99 C 419.58 284.29 419.29 288.97 420.38 293.38 C 418.78 292.04 417.29 290.59 415.82 289.12 C 413.12 284.63 412.55 279.37 412.08 274.26 C 411.65 271.80 410.39 269.59 408.26 268.24 C 408.30 267.58 408.39 266.26 408.44 265.61 Z" />
<path fill="#240606" opacity="1.00" d=" M 393.60 275.49 C 394.95 274.13 396.30 272.78 397.66 271.43 C 401.67 275.02 407.09 274.84 412.08 274.26 C 412.55 279.37 413.12 284.63 415.82 289.12 C 412.77 287.22 409.20 287.45 405.88 288.42 C 402.50 287.94 399.13 287.17 395.69 287.17 C 397.13 286.92 398.58 286.69 400.04 286.47 C 395.96 286.87 391.88 286.26 387.80 286.46 C 385.53 289.43 382.99 292.32 381.68 295.88 C 381.65 297.62 382.89 299.01 383.57 300.54 C 379.35 299.86 374.93 298.98 370.92 301.01 C 367.18 298.31 363.55 294.60 358.51 295.16 C 355.83 292.50 352.94 290.01 350.83 286.85 C 353.06 287.28 355.25 287.91 357.38 288.71 C 357.37 287.54 357.36 286.38 357.36 285.22 C 358.85 285.29 360.34 285.36 361.83 285.42 C 363.94 282.98 367.00 282.18 370.11 282.16 C 374.73 282.27 377.96 278.62 381.83 276.73 C 385.44 274.77 389.68 275.61 393.60 275.49 Z" />
<path fill="#372923" opacity="1.00" d=" M 418.02 279.99 C 417.10 277.38 416.10 274.80 415.56 272.09 C 420.31 275.38 424.47 279.42 429.02 282.98 C 434.48 287.11 439.55 291.80 444.03 296.98 C 440.46 299.27 436.33 300.29 432.30 301.39 C 428.08 299.10 424.11 296.39 420.38 293.38 C 419.29 288.97 419.58 284.29 418.02 279.99 Z" />
<path fill="#71482a" opacity="1.00" d=" M 259.49 276.90 C 261.89 275.79 264.24 274.59 266.71 273.65 C 267.27 274.49 267.83 275.33 268.40 276.18 C 272.62 276.35 276.84 276.49 281.06 276.83 L 282.11 276.92 C 274.62 278.50 267.36 282.08 259.58 281.50 C 259.50 279.97 259.47 278.43 259.49 276.90 Z" />
<path fill="#53382d" opacity="1.00" d=" M 343.96 284.62 C 344.34 284.91 345.11 285.48 345.50 285.76 C 349.14 288.57 352.20 292.05 355.71 295.02 C 362.80 302.24 371.43 307.84 377.86 315.71 C 370.42 315.21 366.59 306.82 359.23 306.47 L 358.71 306.39 C 354.32 302.07 349.91 297.77 345.42 293.55 C 342.61 290.93 339.20 288.89 337.03 285.65 C 340.28 286.71 343.36 288.30 346.75 288.96 C 345.84 287.50 344.92 286.04 343.96 284.62 Z" />
<path fill="#0b0407" opacity="1.00" d=" M 405.88 288.42 C 409.20 287.45 412.77 287.22 415.82 289.12 C 417.29 290.59 418.78 292.04 420.38 293.38 C 424.11 296.39 428.08 299.10 432.30 301.39 C 432.21 302.88 432.11 304.37 432.03 305.87 C 427.38 306.41 423.84 303.21 420.52 300.48 C 415.54 296.56 411.37 291.67 405.88 288.42 Z" />
<path fill="#2c1d17" opacity="1.00" d=" M 355.71 295.02 C 356.41 295.05 357.81 295.12 358.51 295.16 C 363.55 294.60 367.18 298.31 370.92 301.01 C 374.93 298.98 379.35 299.86 383.57 300.54 L 384.22 300.63 C 387.58 303.73 391.32 306.70 393.24 310.98 C 394.28 314.03 393.83 317.38 392.14 320.10 C 387.54 322.07 382.85 324.17 377.81 324.61 C 371.88 318.30 365.19 312.73 359.23 306.47 C 366.59 306.82 370.42 315.21 377.86 315.71 C 371.43 307.84 362.80 302.24 355.71 295.02 Z" />
<path fill="#1a1511" opacity="1.00" d=" M 444.03 296.98 L 444.79 296.55 C 444.40 302.96 437.03 304.47 432.03 305.87 C 432.11 304.37 432.21 302.88 432.30 301.39 C 436.33 300.29 440.46 299.27 444.03 296.98 Z" />
</svg>
